<svg width="14" height="15" viewBox="0 0 14 15" fill="none" xmlns="http://www.w3.org/2000/svg">
<path d="M2.50842 15C1.84675 15 1.37267 14.8533 1.08618 14.56C0.806508 14.2599 0.666672 13.7858 0.666672 13.1378V1.86221C0.666672 1.20055 0.809919 0.726467 1.09641 0.439973C1.38973 0.146658 1.8604 0 2.50842 0C4.71235 0 7.75985 5.21541e-07 9.04754 5.46376e-07C10.8956 5.82017e-07 12.4232 1.63589 12.4232 3.64101C12.4232 5.14169 11.6728 6.36426 10.1721 7.06003C12.1095 7.41418 13.1961 9.37979 13.1961 10.8021C13.1961 12.5208 12.317 15 9.46225 15C8.62903 15 4.71043 15 2.50842 15ZM7.96485 8.33902H3.66667V12.7183H7.96485C8.83334 12.7183 10.0493 11.8685 10.0493 10.498C10.0493 9.12739 8.83334 8.33902 7.96485 8.33902ZM3.66667 2.28172V6.15962H7.63282C8.23178 6.15962 9.46225 5.59898 9.46225 4.16669C9.46225 2.7344 8.13412 2.28172 7.63282 2.28172H3.66667Z" fill="black"/>
</svg>
