<svg width="21" height="20" viewBox="0 0 21 20" fill="none" xmlns="http://www.w3.org/2000/svg">
<path d="M15.8125 0H5.1875C2.59867 0 0.5 2.09867 0.5 4.6875V15.3125C0.5 17.9013 2.59867 20 5.1875 20H15.8125C18.4013 20 20.5 17.9013 20.5 15.3125V4.6875C20.5 2.09867 18.4013 0 15.8125 0Z" fill="#DC2626"/>
<path d="M4.25 2.96875L4.92266 10.5151H13.5719L13.2816 13.7518L10.4968 14.5048L7.71719 13.7529L7.53133 11.6746H5.02656L5.38477 15.6809L10.4963 17.1006L15.6142 15.6809L16.3004 8.01992H7.205L6.97664 5.46445H16.5265L16.75 2.96875H4.25Z" fill="white"/>
<path d="M10.5 2.96875H4.25L4.92266 10.5151H10.5V8.01992H7.205L6.97664 5.46445H10.5V2.96875ZM10.5 14.5037L10.4968 14.5048L7.71719 13.7529L7.53133 11.6746H5.02656L5.38477 15.6809L10.4963 17.1006L10.5001 17.0995L10.5 14.5037Z" fill="#EBEBEB"/>
</svg>
