<svg width="13" height="15" viewBox="0 0 13 15" fill="none" xmlns="http://www.w3.org/2000/svg">
<path fill-rule="evenodd" clip-rule="evenodd" d="M3.45832 0.83374C3.45832 0.419527 3.7941 0.0837402 4.20832 0.0837402H11.7083C12.1225 0.0837402 12.4583 0.419527 12.4583 0.83374C12.4583 1.24795 12.1225 1.58374 11.7083 1.58374H9.00987L6.05159 13.4169H8.79163C9.20584 13.4169 9.54163 13.7527 9.54163 14.1669C9.54163 14.5811 9.20584 14.9169 8.79163 14.9169H1.29163C0.877412 14.9169 0.541626 14.5811 0.541626 14.1669C0.541626 13.7527 0.877412 13.4169 1.29163 13.4169H3.99004L6.94832 1.58374H4.20832C3.7941 1.58374 3.45832 1.24795 3.45832 0.83374Z" fill="#111827"/>
</svg>
