<svg width="20" height="20" viewBox="0 0 20 20" fill="none" xmlns="http://www.w3.org/2000/svg">
<path d="M15.3125 0H4.6875C2.09867 0 0 2.09867 0 4.6875V15.3125C0 17.9013 2.09867 20 4.6875 20H15.3125C17.9013 20 20 17.9013 20 15.3125V4.6875C20 2.09867 17.9013 0 15.3125 0Z" fill="#FACC15"/>
<path d="M5.25875 16.7134L6.78921 15.7872C7.08453 16.3107 7.35312 16.7537 7.99742 16.7537C8.615 16.7537 9.00437 16.5121 9.00437 15.5724V9.18196H10.8839V15.599C10.8839 17.5456 9.74281 18.4317 8.07796 18.4317C6.57445 18.4317 5.70171 17.6531 5.25867 16.7133M11.9048 16.512L13.4351 15.626C13.838 16.2839 14.3616 16.7672 15.2878 16.7672C16.0666 16.7672 16.5632 16.3778 16.5632 15.8408C16.5632 15.1964 16.053 14.9681 15.1938 14.5924L14.7241 14.3909C13.368 13.8137 12.4685 13.0887 12.4685 11.5582C12.4685 10.1485 13.5426 9.07446 15.2208 9.07446C16.4156 9.07446 17.2748 9.49071 17.8923 10.5781L16.429 11.5179C16.1067 10.9406 15.7578 10.7124 15.2208 10.7124C14.6703 10.7124 14.3212 11.0615 14.3212 11.5179C14.3212 12.0817 14.6703 12.31 15.4758 12.6592L15.9456 12.8605C17.5432 13.5452 18.4427 14.2432 18.4427 15.8139C18.4427 17.5056 17.1137 18.4319 15.3281 18.4319C13.5829 18.4319 12.4552 17.5995 11.9048 16.512Z" fill="#323330"/>
</svg>
