<svg width="19" height="16" viewBox="0 0 19 16" fill="none" xmlns="http://www.w3.org/2000/svg">
<path fill-rule="evenodd" clip-rule="evenodd" d="M4.99997 1.41675C4.99997 1.14061 4.77611 0.916748 4.49997 0.916748C4.22382 0.916748 3.99997 1.14061 3.99997 1.41675V8.10013H1.16654C0.945627 8.10013 0.766541 8.27922 0.766541 8.50013C0.766541 8.72105 0.945627 8.90013 1.16654 8.90013H3.99997V11.7501C3.99997 13.9592 5.79083 15.7501 7.99997 15.7501H11C13.2091 15.7501 15 13.9592 15 11.7501V8.90013H17.8332C18.0541 8.90013 18.2332 8.72105 18.2332 8.50013C18.2332 8.27922 18.0541 8.10013 17.8332 8.10013H15V1.41675C15 1.14061 14.7761 0.916748 14.5 0.916748C14.2238 0.916748 14 1.14061 14 1.41675V8.10013H4.99997V1.41675ZM4.99997 8.90013V11.7501C4.99997 13.4069 6.34311 14.7501 7.99997 14.7501H11C12.6568 14.7501 14 13.4069 14 11.7501V8.90013H4.99997Z" fill="#111827"/>
</svg>
