<svg width="15" height="19" viewBox="0 0 15 19" fill="none" xmlns="http://www.w3.org/2000/svg">
<path fill-rule="evenodd" clip-rule="evenodd" d="M1.2833 1.6168V4.50006C1.2833 4.74859 1.08183 4.95006 0.833301 4.95006C0.584773 4.95006 0.383301 4.74859 0.383301 4.50006L0.383301 1.16683C0.383301 1.11925 0.390684 1.0734 0.404367 1.03036C0.462151 0.848532 0.632347 0.716797 0.833311 0.716797H14.1666C14.322 0.716797 14.4589 0.795497 14.5398 0.915198C14.5883 0.987018 14.6166 1.0736 14.6166 1.1668L14.6167 1.16683V4.50006C14.6167 4.74859 14.4152 4.95006 14.1667 4.95006C13.9181 4.95006 13.7167 4.74859 13.7167 4.50006V1.6168H8.04998V17.3835H10.4239C10.6724 17.3835 10.8739 17.585 10.8739 17.8335C10.8739 18.082 10.6724 18.2835 10.4239 18.2835H4.59056C4.34203 18.2835 4.14056 18.082 4.14056 17.8335C4.14056 17.585 4.34203 17.3835 4.59056 17.3835H6.94998V1.6168H1.2833Z" fill="#111827"/>
</svg>
