<svg width="15" height="19" viewBox="0 0 15 19" fill="none" xmlns="http://www.w3.org/2000/svg">
<path fill-rule="evenodd" clip-rule="evenodd" d="M2.99999 0.583252C2.99999 0.30711 2.77613 0.083252 2.49999 0.083252C2.22384 0.083252 1.99999 0.30711 1.99999 0.583252V10.9166C1.99999 13.1257 3.79085 14.9166 5.99999 14.9166H8.99999C11.2091 14.9166 13 13.1257 13 10.9166V0.583252C13 0.30711 12.7761 0.083252 12.5 0.083252C12.2238 0.083252 12 0.30711 12 0.583252V10.9166C12 12.5734 10.6568 13.9166 8.99999 13.9166H5.99999C4.34313 13.9166 2.99999 12.5734 2.99999 10.9166V0.583252ZM0.833258 18.1C0.612344 18.1 0.433258 18.2791 0.433258 18.5C0.433258 18.7209 0.612344 18.9 0.833258 18.9H14.1666C14.3875 18.9 14.5666 18.7209 14.5666 18.5C14.5666 18.2791 14.3875 18.1 14.1666 18.1H0.833258Z" fill="#111827"/>
</svg>
